<svg xmlns="http://www.w3.org/2000/svg" xmlns:xlink="http://www.w3.org/1999/xlink" contentStyleType="text/css" data-diagram-type="ACTIVITY" height="998px" preserveAspectRatio="none" style="width:1059px;height:998px;background:#FFFFFF;" version="1.1" viewBox="0 0 1059 998" width="1059px" zoomAndPan="magnify"><?plantuml 1.2026.6?><defs/><g><g class="title" data-source-line="1"><text fill="#000000" font-family="sans-serif" font-size="14" font-weight="700" lengthAdjust="spacing" textLength="325.9717" x="365.8628" y="34.5332">PKM e-Ledger System - Financial Ledger Activity</text></g><ellipse cx="590.6522" cy="63.6094" fill="#15803D" rx="10" ry="10" style="stroke:#222222;stroke-width:1;"/><rect fill="#F8FAFC" height="35.0938" rx="12.5" ry="12.5" style="stroke:#004AAD;stroke-width:0.5;" width="113.3926" x="533.9559" y="93.6094"/><text fill="#000000" font-family="sans-serif" font-size="12" lengthAdjust="spacing" textLength="93.3926" x="543.9559" y="116.0664">Authenticate user</text><polygon fill="#FEF3C7" points="544.7911,148.7031,636.5133,148.7031,648.5133,160.7031,636.5133,172.7031,544.7911,172.7031,532.7911,160.7031,544.7911,148.7031" style="stroke:#B45309;stroke-width:0.5;stroke-linejoin:miter;stroke-miterlimit:10;"/><text fill="#000000" font-family="sans-serif" font-size="11" lengthAdjust="spacing" textLength="91.7222" x="544.7911" y="165.2041">Management role?</text><text fill="#000000" font-family="sans-serif" font-size="11" lengthAdjust="spacing" textLength="17.1177" x="515.6735" y="158.2861">yes</text><text fill="#000000" font-family="sans-serif" font-size="11" lengthAdjust="spacing" textLength="67.2568" x="648.5133" y="158.2861">read-only role</text><rect fill="#F8FAFC" height="35.0938" rx="12.5" ry="12.5" style="stroke:#004AAD;stroke-width:0.5;" width="170.0586" x="272.6746" y="182.7031"/><text fill="#000000" font-family="sans-serif" font-size="12" lengthAdjust="spacing" textLength="150.0586" x="282.6746" y="205.1602">Select active academic term</text><rect fill="#F8FAFC" height="50.1875" rx="12.5" ry="12.5" style="stroke:#004AAD;stroke-width:0.5;" width="146.0703" x="284.6687" y="252.7969"/><text fill="#000000" font-family="sans-serif" font-size="12" lengthAdjust="spacing" textLength="126.0703" x="294.6687" y="275.2539">Enter income, expense,</text><text fill="#000000" font-family="sans-serif" font-size="12" lengthAdjust="spacing" textLength="121.3887" x="294.6687" y="290.3477">or cash transfer details</text><rect fill="#F8FAFC" height="50.1875" rx="12.5" ry="12.5" style="stroke:#004AAD;stroke-width:0.5;" width="204.1133" x="255.6472" y="337.9844"/><text fill="#000000" font-family="sans-serif" font-size="12" lengthAdjust="spacing" textLength="124.7402" x="265.6472" y="360.4414">Validate fields, amount,</text><text fill="#000000" font-family="sans-serif" font-size="12" lengthAdjust="spacing" textLength="184.1133" x="265.6472" y="375.5352">category, account, and attachment</text><polygon fill="#FEF3C7" points="329.5728,408.1719,385.835,408.1719,397.835,420.1719,385.835,432.1719,329.5728,432.1719,317.5728,420.1719,329.5728,408.1719" style="stroke:#B45309;stroke-width:0.5;stroke-linejoin:miter;stroke-miterlimit:10;"/><text fill="#000000" font-family="sans-serif" font-size="11" lengthAdjust="spacing" textLength="56.2622" x="329.5728" y="424.6729">Input valid?</text><text fill="#000000" font-family="sans-serif" font-size="11" lengthAdjust="spacing" textLength="17.1177" x="300.4551" y="417.7549">yes</text><text fill="#000000" font-family="sans-serif" font-size="11" lengthAdjust="spacing" textLength="12.2354" x="397.835" y="417.7549">no</text><rect fill="#F8FAFC" height="35.0938" rx="12.5" ry="12.5" style="stroke:#004AAD;stroke-width:0.5;" width="114.0605" x="153.2095" y="442.1719"/><text fill="#000000" font-family="sans-serif" font-size="12" lengthAdjust="spacing" textLength="94.0605" x="163.2095" y="464.6289">Stage attachment</text><rect fill="#F8FAFC" height="50.1875" rx="12.5" ry="12.5" style="stroke:#004AAD;stroke-width:0.5;" width="167.4395" x="126.52" y="497.2656"/><text fill="#000000" font-family="sans-serif" font-size="12" lengthAdjust="spacing" textLength="132.7207" x="136.52" y="519.7227">Persist ledger movement</text><text fill="#000000" font-family="sans-serif" font-size="12" lengthAdjust="spacing" textLength="147.4395" x="136.52" y="534.8164">in one database transaction</text><rect fill="#F8FAFC" height="35.0938" rx="12.5" ry="12.5" style="stroke:#004AAD;stroke-width:0.5;" width="189.4004" x="115.5396" y="567.4531"/><text fill="#000000" font-family="sans-serif" font-size="12" lengthAdjust="spacing" textLength="169.4004" x="125.5396" y="589.9102">Commit attachment storage key</text><rect fill="#F8FAFC" height="50.1875" rx="12.5" ry="12.5" style="stroke:#004AAD;stroke-width:0.5;" width="166.0859" x="127.1968" y="622.5469"/><text fill="#000000" font-family="sans-serif" font-size="12" lengthAdjust="spacing" textLength="146.0859" x="137.1968" y="645.0039">Recalculate Cash on Hand,</text><text fill="#000000" font-family="sans-serif" font-size="12" lengthAdjust="spacing" textLength="143.4316" x="137.1968" y="660.0977">Cash in Bank, and balance</text><rect fill="#F8FAFC" height="35.0938" rx="12.5" ry="12.5" style="stroke:#004AAD;stroke-width:0.5;" width="186.7637" x="116.8579" y="692.7344"/><text fill="#000000" font-family="sans-serif" font-size="12" lengthAdjust="spacing" textLength="166.7637" x="126.8579" y="715.1914">Append immutable audit record</text><rect fill="#F8FAFC" height="35.0938" rx="12.5" ry="12.5" style="stroke:#004AAD;stroke-width:0.5;" width="154.0801" x="133.1997" y="747.8281"/><text fill="#000000" font-family="sans-serif" font-size="12" lengthAdjust="spacing" textLength="134.0801" x="143.1997" y="770.2852">Open live report package</text><polygon fill="#FEF3C7" points="164.0725,802.9219,256.407,802.9219,268.407,814.9219,256.407,826.9219,164.0725,826.9219,152.0725,814.9219,164.0725,802.9219" style="stroke:#B45309;stroke-width:0.5;stroke-linejoin:miter;stroke-miterlimit:10;"/><text fill="#000000" font-family="sans-serif" font-size="11" lengthAdjust="spacing" textLength="92.3345" x="164.0725" y="819.4229">Export authorized?</text><text fill="#000000" font-family="sans-serif" font-size="11" lengthAdjust="spacing" textLength="17.1177" x="134.9548" y="812.5049">yes</text><text fill="#000000" font-family="sans-serif" font-size="11" lengthAdjust="spacing" textLength="12.2354" x="268.407" y="812.5049">no</text><rect fill="#F8FAFC" height="35.0938" rx="12.5" ry="12.5" style="stroke:#004AAD;stroke-width:0.5;" width="182.0762" x="16" y="836.9219"/><text fill="#000000" font-family="sans-serif" font-size="12" lengthAdjust="spacing" textLength="162.0762" x="26" y="859.3789">Generate PDF or XLSX export</text><rect fill="#F8FAFC" height="35.0938" rx="12.5" ry="12.5" style="stroke:#004AAD;stroke-width:0.5;" width="190.7305" x="218.0762" y="836.9219"/><text fill="#000000" font-family="sans-serif" font-size="12" lengthAdjust="spacing" textLength="170.7305" x="228.0762" y="859.3789">Continue with HTML report view</text><polygon fill="#FEF3C7" points="210.2397,878.0156,222.2397,890.0156,210.2397,902.0156,198.2397,890.0156,210.2397,878.0156" style="stroke:#B45309;stroke-width:0.5;stroke-linejoin:miter;stroke-miterlimit:10;"/><rect fill="#F8FAFC" height="35.0938" rx="12.5" ry="12.5" style="stroke:#004AAD;stroke-width:0.5;" width="132.7227" x="438.8066" y="442.1719"/><text fill="#000000" font-family="sans-serif" font-size="12" lengthAdjust="spacing" textLength="112.7227" x="448.8066" y="464.6289">Show validation error</text><ellipse cx="505.168" cy="508.2656" fill="none" rx="11" ry="11" style="stroke:#222222;stroke-width:1;"/><ellipse cx="505.168" cy="508.2656" fill="#222222" rx="6" ry="6" style="stroke:#222222;stroke-width:1;"/><polygon fill="#FEF3C7" points="796.6995,182.7031,850.5017,182.7031,862.5017,194.7031,850.5017,206.7031,796.6995,206.7031,784.6995,194.7031,796.6995,182.7031" style="stroke:#B45309;stroke-width:0.5;stroke-linejoin:miter;stroke-miterlimit:10;"/><text fill="#000000" font-family="sans-serif" font-size="11" lengthAdjust="spacing" textLength="53.8022" x="796.6995" y="199.2041">OSA user?</text><text fill="#000000" font-family="sans-serif" font-size="11" lengthAdjust="spacing" textLength="17.1177" x="767.5818" y="192.2861">yes</text><text fill="#000000" font-family="sans-serif" font-size="11" lengthAdjust="spacing" textLength="88.6284" x="862.5017" y="192.2861">Officer or Member</text><rect fill="#F8FAFC" height="35.0938" rx="12.5" ry="12.5" style="stroke:#004AAD;stroke-width:0.5;" width="122.0645" x="650.5264" y="216.7031"/><text fill="#000000" font-family="sans-serif" font-size="12" lengthAdjust="spacing" textLength="102.0645" x="660.5264" y="239.1602">Select organization</text><rect fill="#F8FAFC" height="35.0938" rx="12.5" ry="12.5" style="stroke:#004AAD;stroke-width:0.5;" width="200.0586" x="611.5293" y="286.7969"/><text fill="#000000" font-family="sans-serif" font-size="12" lengthAdjust="spacing" textLength="180.0586" x="621.5293" y="309.2539">View cross-organization summary</text><rect fill="#F8FAFC" height="50.1875" rx="12.5" ry="12.5" style="stroke:#004AAD;stroke-width:0.5;" width="208.1094" x="831.5879" y="216.7031"/><text fill="#000000" font-family="sans-serif" font-size="12" lengthAdjust="spacing" textLength="188.1094" x="841.5879" y="239.1602">View same-organization dashboard</text><text fill="#000000" font-family="sans-serif" font-size="12" lengthAdjust="spacing" textLength="103.4063" x="841.5879" y="254.2539">and report package</text><polygon fill="#FEF3C7" points="823.6006,327.8906,835.6006,339.8906,823.6006,351.8906,811.6006,339.8906,823.6006,327.8906" style="stroke:#B45309;stroke-width:0.5;stroke-linejoin:miter;stroke-miterlimit:10;"/><polygon fill="#FEF3C7" points="590.6522,912.0156,602.6522,924.0156,590.6522,936.0156,578.6522,924.0156,590.6522,912.0156" style="stroke:#B45309;stroke-width:0.5;stroke-linejoin:miter;stroke-miterlimit:10;"/><ellipse cx="590.6522" cy="967.0156" fill="none" rx="11" ry="11" style="stroke:#222222;stroke-width:1;"/><ellipse cx="590.6522" cy="967.0156" fill="#222222" rx="6" ry="6" style="stroke:#222222;stroke-width:1;"/><line style="stroke:#181818;stroke-width:1;" x1="590.6522" x2="590.6522" y1="73.6094" y2="93.6094"/><polygon fill="#181818" points="586.6522,83.6094,590.6522,93.6094,594.6522,83.6094,590.6522,87.6094" style="stroke:#181818;stroke-width:1;stroke-linejoin:miter;stroke-miterlimit:10;"/><line style="stroke:#181818;stroke-width:1;" x1="357.7039" x2="357.7039" y1="217.7969" y2="252.7969"/><polygon fill="#181818" points="353.7039,242.7969,357.7039,252.7969,361.7039,242.7969,357.7039,246.7969" style="stroke:#181818;stroke-width:1;stroke-linejoin:miter;stroke-miterlimit:10;"/><line style="stroke:#181818;stroke-width:1;" x1="357.7039" x2="357.7039" y1="302.9844" y2="337.9844"/><polygon fill="#181818" points="353.7039,327.9844,357.7039,337.9844,361.7039,327.9844,357.7039,331.9844" style="stroke:#181818;stroke-width:1;stroke-linejoin:miter;stroke-miterlimit:10;"/><line style="stroke:#181818;stroke-width:1;" x1="210.2397" x2="210.2397" y1="477.2656" y2="497.2656"/><polygon fill="#181818" points="206.2397,487.2656,210.2397,497.2656,214.2397,487.2656,210.2397,491.2656" style="stroke:#181818;stroke-width:1;stroke-linejoin:miter;stroke-miterlimit:10;"/><line style="stroke:#181818;stroke-width:1;" x1="210.2397" x2="210.2397" y1="547.4531" y2="567.4531"/><polygon fill="#181818" points="206.2397,557.4531,210.2397,567.4531,214.2397,557.4531,210.2397,561.4531" style="stroke:#181818;stroke-width:1;stroke-linejoin:miter;stroke-miterlimit:10;"/><line style="stroke:#181818;stroke-width:1;" x1="210.2397" x2="210.2397" y1="602.5469" y2="622.5469"/><polygon fill="#181818" points="206.2397,612.5469,210.2397,622.5469,214.2397,612.5469,210.2397,616.5469" style="stroke:#181818;stroke-width:1;stroke-linejoin:miter;stroke-miterlimit:10;"/><line style="stroke:#181818;stroke-width:1;" x1="210.2397" x2="210.2397" y1="672.7344" y2="692.7344"/><polygon fill="#181818" points="206.2397,682.7344,210.2397,692.7344,214.2397,682.7344,210.2397,686.7344" style="stroke:#181818;stroke-width:1;stroke-linejoin:miter;stroke-miterlimit:10;"/><line style="stroke:#181818;stroke-width:1;" x1="210.2397" x2="210.2397" y1="727.8281" y2="747.8281"/><polygon fill="#181818" points="206.2397,737.8281,210.2397,747.8281,214.2397,737.8281,210.2397,741.8281" style="stroke:#181818;stroke-width:1;stroke-linejoin:miter;stroke-miterlimit:10;"/><line style="stroke:#181818;stroke-width:1;" x1="152.0725" x2="107.0381" y1="814.9219" y2="814.9219"/><line style="stroke:#181818;stroke-width:1;" x1="107.0381" x2="107.0381" y1="814.9219" y2="836.9219"/><polygon fill="#181818" points="103.0381,826.9219,107.0381,836.9219,111.0381,826.9219,107.0381,830.9219" style="stroke:#181818;stroke-width:1;stroke-linejoin:miter;stroke-miterlimit:10;"/><line style="stroke:#181818;stroke-width:1;" x1="268.407" x2="313.4414" y1="814.9219" y2="814.9219"/><line style="stroke:#181818;stroke-width:1;" x1="313.4414" x2="313.4414" y1="814.9219" y2="836.9219"/><polygon fill="#181818" points="309.4414,826.9219,313.4414,836.9219,317.4414,826.9219,313.4414,830.9219" style="stroke:#181818;stroke-width:1;stroke-linejoin:miter;stroke-miterlimit:10;"/><line style="stroke:#181818;stroke-width:1;" x1="107.0381" x2="107.0381" y1="872.0156" y2="890.0156"/><line style="stroke:#181818;stroke-width:1;" x1="107.0381" x2="198.2397" y1="890.0156" y2="890.0156"/><polygon fill="#181818" points="188.2397,886.0156,198.2397,890.0156,188.2397,894.0156,192.2397,890.0156" style="stroke:#181818;stroke-width:1;stroke-linejoin:miter;stroke-miterlimit:10;"/><line style="stroke:#181818;stroke-width:1;" x1="313.4414" x2="313.4414" y1="872.0156" y2="890.0156"/><line style="stroke:#181818;stroke-width:1;" x1="313.4414" x2="222.2397" y1="890.0156" y2="890.0156"/><polygon fill="#181818" points="232.2397,886.0156,222.2397,890.0156,232.2397,894.0156,228.2397,890.0156" style="stroke:#181818;stroke-width:1;stroke-linejoin:miter;stroke-miterlimit:10;"/><line style="stroke:#181818;stroke-width:1;" x1="210.2397" x2="210.2397" y1="782.9219" y2="802.9219"/><polygon fill="#181818" points="206.2397,792.9219,210.2397,802.9219,214.2397,792.9219,210.2397,796.9219" style="stroke:#181818;stroke-width:1;stroke-linejoin:miter;stroke-miterlimit:10;"/><line style="stroke:#181818;stroke-width:1;" x1="505.168" x2="505.168" y1="477.2656" y2="497.2656"/><polygon fill="#181818" points="501.168,487.2656,505.168,497.2656,509.168,487.2656,505.168,491.2656" style="stroke:#181818;stroke-width:1;stroke-linejoin:miter;stroke-miterlimit:10;"/><line style="stroke:#181818;stroke-width:1;" x1="317.5728" x2="210.2397" y1="420.1719" y2="420.1719"/><line style="stroke:#181818;stroke-width:1;" x1="210.2397" x2="210.2397" y1="420.1719" y2="442.1719"/><polygon fill="#181818" points="206.2397,432.1719,210.2397,442.1719,214.2397,432.1719,210.2397,436.1719" style="stroke:#181818;stroke-width:1;stroke-linejoin:miter;stroke-miterlimit:10;"/><line style="stroke:#181818;stroke-width:1;" x1="397.835" x2="505.168" y1="420.1719" y2="420.1719"/><line style="stroke:#181818;stroke-width:1;" x1="505.168" x2="505.168" y1="420.1719" y2="442.1719"/><polygon fill="#181818" points="501.168,432.1719,505.168,442.1719,509.168,432.1719,505.168,436.1719" style="stroke:#181818;stroke-width:1;stroke-linejoin:miter;stroke-miterlimit:10;"/><line style="stroke:#181818;stroke-width:1;" x1="210.2397" x2="210.2397" y1="902.0156" y2="924.0156"/><line style="stroke:#181818;stroke-width:1;" x1="210.2397" x2="578.6522" y1="924.0156" y2="924.0156"/><polygon fill="#181818" points="568.6522,920.0156,578.6522,924.0156,568.6522,928.0156,572.6522,924.0156" style="stroke:#181818;stroke-width:1;stroke-linejoin:miter;stroke-miterlimit:10;"/><line style="stroke:#181818;stroke-width:1;" x1="357.7039" x2="357.7039" y1="388.1719" y2="408.1719"/><polygon fill="#181818" points="353.7039,398.1719,357.7039,408.1719,361.7039,398.1719,357.7039,402.1719" style="stroke:#181818;stroke-width:1;stroke-linejoin:miter;stroke-miterlimit:10;"/><line style="stroke:#181818;stroke-width:1;" x1="711.5586" x2="711.5586" y1="251.7969" y2="286.7969"/><polygon fill="#181818" points="707.5586,276.7969,711.5586,286.7969,715.5586,276.7969,711.5586,280.7969" style="stroke:#181818;stroke-width:1;stroke-linejoin:miter;stroke-miterlimit:10;"/><line style="stroke:#181818;stroke-width:1;" x1="784.6995" x2="711.5586" y1="194.7031" y2="194.7031"/><line style="stroke:#181818;stroke-width:1;" x1="711.5586" x2="711.5586" y1="194.7031" y2="216.7031"/><polygon fill="#181818" points="707.5586,206.7031,711.5586,216.7031,715.5586,206.7031,711.5586,210.7031" style="stroke:#181818;stroke-width:1;stroke-linejoin:miter;stroke-miterlimit:10;"/><line style="stroke:#181818;stroke-width:1;" x1="862.5017" x2="935.6426" y1="194.7031" y2="194.7031"/><line style="stroke:#181818;stroke-width:1;" x1="935.6426" x2="935.6426" y1="194.7031" y2="216.7031"/><polygon fill="#181818" points="931.6426,206.7031,935.6426,216.7031,939.6426,206.7031,935.6426,210.7031" style="stroke:#181818;stroke-width:1;stroke-linejoin:miter;stroke-miterlimit:10;"/><line style="stroke:#181818;stroke-width:1;" x1="711.5586" x2="711.5586" y1="321.8906" y2="339.8906"/><line style="stroke:#181818;stroke-width:1;" x1="711.5586" x2="811.6006" y1="339.8906" y2="339.8906"/><polygon fill="#181818" points="801.6006,335.8906,811.6006,339.8906,801.6006,343.8906,805.6006,339.8906" style="stroke:#181818;stroke-width:1;stroke-linejoin:miter;stroke-miterlimit:10;"/><line style="stroke:#181818;stroke-width:1;" x1="935.6426" x2="935.6426" y1="266.8906" y2="339.8906"/><line style="stroke:#181818;stroke-width:1;" x1="935.6426" x2="835.6006" y1="339.8906" y2="339.8906"/><polygon fill="#181818" points="845.6006,335.8906,835.6006,339.8906,845.6006,343.8906,841.6006,339.8906" style="stroke:#181818;stroke-width:1;stroke-linejoin:miter;stroke-miterlimit:10;"/><line style="stroke:#181818;stroke-width:1;" x1="532.7911" x2="357.7039" y1="160.7031" y2="160.7031"/><line style="stroke:#181818;stroke-width:1;" x1="357.7039" x2="357.7039" y1="160.7031" y2="182.7031"/><polygon fill="#181818" points="353.7039,172.7031,357.7039,182.7031,361.7039,172.7031,357.7039,176.7031" style="stroke:#181818;stroke-width:1;stroke-linejoin:miter;stroke-miterlimit:10;"/><line style="stroke:#181818;stroke-width:1;" x1="648.5133" x2="823.6006" y1="160.7031" y2="160.7031"/><line style="stroke:#181818;stroke-width:1;" x1="823.6006" x2="823.6006" y1="160.7031" y2="182.7031"/><polygon fill="#181818" points="819.6006,172.7031,823.6006,182.7031,827.6006,172.7031,823.6006,176.7031" style="stroke:#181818;stroke-width:1;stroke-linejoin:miter;stroke-miterlimit:10;"/><line style="stroke:#181818;stroke-width:1;" x1="823.6006" x2="823.6006" y1="351.8906" y2="924.0156"/><line style="stroke:#181818;stroke-width:1;" x1="823.6006" x2="602.6522" y1="924.0156" y2="924.0156"/><polygon fill="#181818" points="612.6522,920.0156,602.6522,924.0156,612.6522,928.0156,608.6522,924.0156" style="stroke:#181818;stroke-width:1;stroke-linejoin:miter;stroke-miterlimit:10;"/><line style="stroke:#181818;stroke-width:1;" x1="590.6522" x2="590.6522" y1="128.7031" y2="148.7031"/><polygon fill="#181818" points="586.6522,138.7031,590.6522,148.7031,594.6522,138.7031,590.6522,142.7031" style="stroke:#181818;stroke-width:1;stroke-linejoin:miter;stroke-miterlimit:10;"/><line style="stroke:#181818;stroke-width:1;" x1="590.6522" x2="590.6522" y1="936.0156" y2="956.0156"/><polygon fill="#181818" points="586.6522,946.0156,590.6522,956.0156,594.6522,946.0156,590.6522,950.0156" style="stroke:#181818;stroke-width:1;stroke-linejoin:miter;stroke-miterlimit:10;"/><?plantuml-src RL9DRnf13Btlhx3KIv100YLHyt6ebWqqLOCIbIhArSmO634Vo3CB8LN_UpsxcuWckR38py_pdf-JIPRWuUSCQ717UaKCyqDCv600K-FHAuCMEgHKoUnCEXHnO_mM6Ht4DUgmDtu5IxIHZX3ick5F0J16jLbngBskWWqCNwONqt9QPIIm9kwgm-5PMTv8zSQW2rv_f4scfzNNeuPZzlZi_7HuAU0y8QUkE3g_69xcaPEt8UFBKJMgYhz54NDZSLNMQKq-6OM9e8x4ruLPmiaCFQx82G8SB7thGMw3amF5dWoycfCbbLgZ91_Kv8o2HEokCpxnyXUCLy5H7-XvIpvINn0HeJ2k8J7wk9GUJGcDZGth4QtHMSZIaDMn3sAqzYdpihvLu8FKb6gAW5u3feHgdNNc0Ldv3x-j4-pofFUgi-uajjwnfFn074rCODkmNTWrtXlGU0YUG7JX0YErohFnu3js5PmpwMWgn1GuFxIXGzVpYnHQLTlihieB21vknK6_WPkAF3H6lscDBT3A0LB7BhUoG0t6kLfKoDLYhUL59YL7qFNSImlO70VJDd22hLoGY6ZXl9h9SrD7YJomUQ5F5YHplfCdpZ8VRgOvhgUx-LDEKAZjA99ZXnCVtXXLa0FoDS7Uf3NS_fxTlKhO6Tft9A_DidXFlfglmxuD2_D2WPW3jmpPuRPu9ROq9jI3uEsXESfUb_Zzl6mkzxEuspCDl49lNl0eiqTH1ef3Z8DZ56Bj77AJMllc_N9fbDo4R696Ra7SEneGqT7_V2r9BWAoRhfoaX_Jw2mrlzdbFm00?></g></svg>